<?xml version="1.0" encoding="utf-8"?>
<!-- Generator: Adobe Illustrator 23.1.0, SVG Export Plug-In . SVG Version: 6.00 Build 0)  -->
<svg version="1.0" id="Layer_1" xmlns="http://www.w3.org/2000/svg" xmlns:xlink="http://www.w3.org/1999/xlink" x="0px" y="0px"
	 viewBox="0 0 200 200" style="enable-background:new 0 0 200 200;" xml:space="preserve">
<style type="text/css">
	.st0{fill:url(#SVGID_1_);}
	.st1{fill:none;stroke:#FFFFFF;stroke-width:2.9025;stroke-linecap:round;stroke-linejoin:round;stroke-miterlimit:10;}
	.st2{fill:none;stroke:#FFFFFF;stroke-width:5.8049;stroke-linecap:round;stroke-linejoin:round;stroke-miterlimit:10;}
</style>
<linearGradient id="SVGID_1_" gradientUnits="userSpaceOnUse" x1="133.113" y1="-7.8898" x2="201.9945" y2="178.2975" gradientTransform="matrix(-0.9983 5.814081e-02 -5.814081e-02 -0.9983 271.9878 175.318)">
	<stop  offset="0" style="stop-color:#6A73FF"/>
	<stop  offset="1" style="stop-color:#A26AFF"/>
</linearGradient>
<circle class="st0" cx="99.8" cy="100" r="99.2"/>
<g>
	<path class="st1" d="M106.9,81.9H92.5c-1.8,0-3.2-1.4-3.2-3.2V64.3c0-1.8,1.4-3.2,3.2-3.2h14.4c1.8,0,3.2,1.4,3.2,3.2v14.4
		C110.1,80.5,108.6,81.9,106.9,81.9z"/>
	<path class="st1" d="M75.5,127.1H61.1c-1.8,0-3.2-1.4-3.2-3.2v-14.4c0-1.8,1.4-3.2,3.2-3.2h14.4c1.8,0,3.2,1.4,3.2,3.2v14.4
		C78.7,125.6,77.2,127.1,75.5,127.1z"/>
	<path class="st1" d="M107,127.1H92.6c-1.8,0-3.2-1.4-3.2-3.2v-14.4c0-1.8,1.4-3.2,3.2-3.2H107c1.8,0,3.2,1.4,3.2,3.2v14.4
		C110.2,125.6,108.8,127.1,107,127.1z"/>
	<path class="st1" d="M138.4,127.1H124c-1.8,0-3.2-1.4-3.2-3.2v-14.4c0-1.8,1.4-3.2,3.2-3.2h14.4c1.8,0,3.2,1.4,3.2,3.2v14.4
		C141.6,125.6,140.2,127.1,138.4,127.1z"/>
	<polyline class="st1" points="131.2,100.7 131.2,94.1 68.4,94.1 68.3,94.1 68.3,100.7 	"/>
	<line class="st1" x1="99.8" y1="88" x2="99.8" y2="100.4"/>
</g>
<polygon class="st2" points="156.4,156.1 156.4,78.4 170.9,78.4 159.8,69.9 159.3,42.2 143.5,42 143.1,57.2 100.9,25.1 28.6,79
	44.1,79 44.1,156.1 "/>
</svg>
